<svg width="1996" height="1340" viewBox="0 0 1996 1340" fill="none" xmlns="http://www.w3.org/2000/svg">
<rect width="1996" height="1340" rx="670" fill="#F5F5F5"/>
<path d="M699.817 406.5C614.261 403 512.694 575 559.224 668.5L610.758 698.5V689.5L583.741 661.5L579.238 653.5L635.274 578V561.5L640.278 547H645.781L647.282 533L640.278 486.5L672.799 447L699.817 406.5Z" fill="#8CA6C1"/>
<path d="M610.758 698.5L559.224 668.5C322.569 689.5 235.011 952 464.162 1093.5L544.215 1064.5L723.833 995.5L752.351 974.5C757.906 969.276 759.814 965.742 761.357 958.5L740.344 928L625.268 951L623.767 952.5L608.257 949.5L602.253 946.5L586.242 907.5L601.752 866.5L616.262 795L624.768 784L616.262 769V757L621.265 748.5L607.756 726L612.259 705.5L610.758 698.5Z" fill="#8CA6C1"/>
<path d="M559.224 668.5C512.694 575 614.261 403 699.817 406.5L672.799 447L640.278 486.5L647.282 533L645.781 547H640.278L635.274 561.5V578L579.238 653.5L583.741 661.5L610.758 689.5V698.5M559.224 668.5L610.758 698.5M559.224 668.5C322.569 689.5 235.011 952 464.162 1093.5L544.215 1064.5L723.833 995.5L752.351 974.5C757.906 969.276 759.814 965.742 761.357 958.5L740.344 928L625.268 951L623.767 952.5L608.257 949.5L602.253 946.5L586.242 907.5L601.752 866.5L616.262 795L624.768 784L616.262 769V757L621.265 748.5L607.756 726L612.259 705.5L610.758 698.5" stroke="#8CA6C1" stroke-linecap="round"/>
<path d="M1419.29 1116C1649.44 1079 1773.52 748 1419.29 541.5L1406.78 556L1402.78 553L1396.78 545L1388.27 540L1380.76 538V553L1382.77 569L1394.77 583.5L1400.78 591L1380.76 585L1337.24 561L1307.22 533.5L1303.21 549.5L1287.2 595L1259.69 643L1236.17 671.5L1214.66 692L1196.64 711L1184.64 724L1146.11 748L1116.59 763L1100.08 776L1097.08 804L1095.08 910L1103.08 982L1106.58 1000.5L1110.09 1017.5L1122.6 1038L1172.63 1087.5L1199.65 1115L1419.29 1116Z" fill="#8CA6C1" stroke="#8CA6C1" stroke-linecap="round"/>
<path d="M442.147 597.5C395.12 602.573 368.064 613.837 318.566 648.5" stroke="black" stroke-width="5" stroke-linecap="round"/>
<path d="M640.278 323C621.321 329.959 609.054 335.442 582.74 349.5" stroke="black" stroke-width="5" stroke-linecap="round"/>
<path d="M571.733 356C561.873 361.962 556.635 365.427 548.217 372" stroke="black" stroke-width="5" stroke-linecap="round"/>
<path d="M534.708 382C481.673 428.5 456.157 477.5 445.65 554.5" stroke="black" stroke-width="5" stroke-linecap="round"/>
<path d="M682.806 376.5L668.797 411.5" stroke="black" stroke-width="5" stroke-linecap="round"/>
<path d="M682.806 376.5C661.292 361.318 651.429 350.246 640.278 323" stroke="black" stroke-width="5" stroke-linecap="round"/>
<path d="M1714.98 722.5C1730.78 762.181 1734.09 783.856 1735 822" stroke="black" stroke-width="5" stroke-linecap="round"/>
<path d="M1697.47 683C1703.03 692.144 1705.74 697.286 1709.48 706.5" stroke="black" stroke-width="5" stroke-linecap="round"/>
<path d="M555.722 662C548.807 639.538 547.764 622.844 548.718 589" stroke="black" stroke-width="5" stroke-linecap="round"/>
<path d="M553.221 562.5C555.989 551.363 557.929 545.628 562.227 536.5" stroke="black" stroke-width="5" stroke-linecap="round"/>
<path d="M596.749 476.5C583.202 493.797 576.786 503.532 568.731 521" stroke="black" stroke-width="5" stroke-linecap="round"/>
<path d="M668.797 411.5C649.521 419.444 640.306 425.17 627.77 438.5" stroke="black" stroke-width="5" stroke-linecap="round"/>
<path d="M528.204 673C535.374 670.836 539.436 670.338 546.716 670" stroke="black" stroke-width="5" stroke-linecap="round"/>
<path d="M1422.29 541.5C1464.16 567.281 1490.84 586.5 1532.36 626" stroke="black" stroke-width="5" stroke-linecap="round"/>
<path d="M1556.38 652C1569.39 666.5 1588.4 690.5 1605.41 721.5" stroke="black" stroke-width="5" stroke-linecap="round"/>
<path d="M1617.42 746C1621.18 754.79 1622.8 759.155 1624.93 766" stroke="black" stroke-width="5" stroke-linecap="round"/>
<path d="M1632.42 790C1662.13 906.026 1611.58 1010.34 1519.86 1079" stroke="black" stroke-width="5" stroke-linecap="round"/>
<path d="M392.115 743C318.615 809.064 306.366 930.451 377.313 1018" stroke="black" stroke-width="5" stroke-linecap="round"/>
<path d="M489.178 1109C455.961 1093.74 415.675 1065.76 388.112 1031" stroke="black" stroke-width="5" stroke-linecap="round"/>
<path d="M1682.96 665.5C1682.57 664.58 1678.39 658.445 1675.96 656" stroke="black" stroke-width="5" stroke-linecap="round"/>
<path d="M530.205 1116H1421.79" stroke="black" stroke-width="5" stroke-linecap="round"/>
<path d="M302.8 663C101.847 881.82 316.33 1102.14 463.161 1146" stroke="black" stroke-width="5" stroke-linecap="round"/>
<path d="M1732.5 857C1723.99 975.5 1621.92 1115 1503.85 1146" stroke="black" stroke-width="5" stroke-linecap="round"/>
<path d="M1041.04 715C1025.57 729.607 1014.49 738.906 1012.02 747.5" stroke="black" stroke-width="5" stroke-linecap="round"/>
<path d="M944.978 716C942.477 724 919.962 747.5 917.96 755.5" stroke="black" stroke-width="5" stroke-linecap="round"/>
<path d="M917.96 755.5C903.951 825.5 1016.53 843 1012.02 747.5" stroke="black" stroke-width="5" stroke-linecap="round"/>
<path d="M977.5 633C992.416 617.171 1003.3 608.035 1025.03 591.5" stroke="black" stroke-width="5" stroke-linecap="round"/>
<path d="M1025.03 591.5C1048.05 580 1063.06 582.5 1068.06 604.5" stroke="black" stroke-width="5" stroke-linecap="round"/>
<path d="M1068.06 604.5C1072.56 622.5 1076.65 631.874 1079.57 646.5" stroke="black" stroke-width="5" stroke-linecap="round"/>
<path d="M1079.57 646.5C1080.57 655.5 1067.22 682.474 1051.05 704.5" stroke="black" stroke-width="5" stroke-linecap="round"/>
<path d="M1015.52 720C1027.53 698.5 1048.05 680 1061.55 651.5" stroke="black" stroke-width="5" stroke-linecap="round"/>
<path d="M1046.04 614.5C1057.05 615.5 1065.06 641.5 1061.55 651.5" stroke="black" stroke-width="5" stroke-linecap="round"/>
<path d="M1001.02 639.5C1021.11 626.621 1033.15 618.509 1045.54 614.5" stroke="black" stroke-width="5" stroke-linecap="round"/>
<path d="M1006.52 654C994.87 665.908 988.507 672.554 979.501 684" stroke="black" stroke-width="5" stroke-linecap="round"/>
<path d="M989.507 716.5C988.507 712.5 994.511 704.5 993.51 700" stroke="black" stroke-width="5" stroke-linecap="round"/>
<path d="M979.501 684C981.207 690.107 994.454 698.545 993.457 700" stroke="black" stroke-width="5" stroke-linecap="round"/>
<path d="M1097.58 799.5C1093.58 868 1091.76 931.462 1106.08 1000.5" stroke="black" stroke-width="5" stroke-linecap="round"/>
<path d="M1200.65 1114.5C1151.41 1068.53 1116.82 1039.27 1109.09 1014" stroke="black" stroke-width="5" stroke-linecap="round"/>
<path d="M979.501 964C987.168 984.625 1022.22 1021.85 1073.06 1078.5" stroke="black" stroke-width="5" stroke-linecap="round"/>
<path d="M940.475 856C922.872 924.743 911.341 963.377 886.94 1032.5" stroke="black" stroke-width="5" stroke-linecap="round"/>
<path d="M751.851 944.5C804.386 1015 818.395 1066 825.4 1107" stroke="black" stroke-width="5" stroke-linecap="round"/>
<path d="M752.852 974.5C725.334 1004 630.271 1028 522.2 1072.5" stroke="black" stroke-width="5" stroke-linecap="round"/>
<path d="M1018.03 646C1022.41 653.882 1023.5 661.438 1024.53 677" stroke="black" stroke-width="5" stroke-linecap="round"/>
<path d="M956.486 690.5C971.996 669 969.494 677 964.491 648" stroke="black" stroke-width="5" stroke-linecap="round"/>
<path d="M1143.11 160.5C1143.11 123.5 1179.13 116 1174.63 81.5" stroke="black" stroke-width="5" stroke-linecap="round"/>
<path d="M1210.65 119.5C1213.15 103 1177.63 75.5 1174.63 82" stroke="black" stroke-width="5" stroke-linecap="round"/>
<path d="M1192.64 169.5C1131.6 234 1228.16 381.5 1331.23 309.5" stroke="black" stroke-width="5" stroke-linecap="round"/>
<path d="M1293.21 280.5C1308.47 303.968 1318.72 309.5 1330.73 309.5" stroke="black" stroke-width="5" stroke-linecap="round"/>
<path d="M1179.66 162C1178.3 134.528 1233.04 103.252 1269.69 88" stroke="black" stroke-width="5" stroke-linecap="round"/>
<path d="M1402.28 592C1386.5 576.646 1379.12 566.899 1380.26 538.5" stroke="black" stroke-width="5" stroke-linecap="round"/>
<path d="M1353.25 536.5C1386.5 535.353 1398.12 539.432 1404.28 556.5" stroke="black" stroke-width="5" stroke-linecap="round"/>
<path d="M1404.28 556.5C1440.51 530.91 1454.53 481.777 1419.79 438.5" stroke="black" stroke-width="5" stroke-linecap="round"/>
<path d="M1439.8 491.5C1489.84 509.5 1518.86 472 1521.36 423.5" stroke="black" stroke-width="5" stroke-linecap="round"/>
<path d="M1521.36 423.5C1484.33 435.5 1445.81 423.5 1449.81 356.5" stroke="black" stroke-width="5" stroke-linecap="round"/>
<path d="M1494.84 218C1490.1 260.761 1454.55 306.761 1449.81 356" stroke="black" stroke-width="5" stroke-linecap="round"/>
<path d="M1490.43 238.98C1520.88 130.911 1424.66 9.07862 1249.14 97.5036" stroke="black" stroke-width="5" stroke-linecap="round"/>
<path d="M929.468 197C993.51 173.5 1095.5 205.334 1146.11 259.5" stroke="black" stroke-width="5" stroke-linecap="round"/>
<path d="M835.906 150.5C926.966 91.5 1094.08 111.5 1178.13 187.5" stroke="black" stroke-width="5" stroke-linecap="round"/>
<path d="M827.401 310.5C924.965 239 1046.04 260.5 1110.09 332.5" stroke="black" stroke-width="5" stroke-linecap="round"/>
<path d="M1326.73 156.5C1384.34 180.136 1413.29 252 1403.28 290" stroke="black" stroke-width="5" stroke-linecap="round"/>
<path d="M1333.73 391.5C1331.94 428.722 1351.75 472.5 1379.76 481.5" stroke="black" stroke-width="5" stroke-linecap="round"/>
<path d="M1237.1 331C1218.08 379.5 1237.1 451.5 1276.63 481" stroke="black" stroke-width="5" stroke-linecap="round"/>
<path d="M1272.19 446C1274.7 519 1331.23 570.5 1402.28 592" stroke="black" stroke-width="5" stroke-linecap="round"/>
<path d="M1062.06 708L1070.06 730" stroke="black" stroke-width="5" stroke-linecap="round"/>
<path d="M1069.56 747.5C1071.82 760.598 1071.81 771.19 1071.06 792C1072.05 793.203 1082.49 786.568 1102.58 774" stroke="black" stroke-width="5" stroke-linecap="round"/>
<path d="M1115.59 763.5C1160.98 740.081 1185.02 727.166 1199.15 708.5" stroke="black" stroke-width="5" stroke-linecap="round"/>
<path d="M1306.22 533C1300.21 586 1255.68 660 1213.66 692" stroke="black" stroke-width="5" stroke-linecap="round"/>
<path d="M762.966 362.847C674.432 301.103 753.324 209.057 857.038 184.655" stroke="black" stroke-width="5" stroke-linecap="round"/>
<path d="M842.411 159.5C679.804 142 584.741 316.5 708.823 373" stroke="black" stroke-width="5" stroke-linecap="round"/>
<path d="M1192.64 465C1234.67 535.5 1155.12 563.5 1155.12 617.5" stroke="black" stroke-width="5" stroke-linecap="round"/>
<path d="M883.438 505C853.367 470.616 842.73 455.065 837.407 435.5C849.775 411.217 857.8 400.823 872.431 372" stroke="black" stroke-width="5" stroke-linecap="round"/>
<path d="M776.868 375.5C790.782 359.665 812.655 355.899 853.918 350" stroke="black" stroke-width="5" stroke-linecap="round"/>
<path d="M920.962 437.5C945.003 428.894 958.337 431.328 982.003 441.5" stroke="black" stroke-width="5" stroke-linecap="round"/>
<path d="M1088.57 445.5L1000.51 558.5" stroke="black" stroke-width="5" stroke-linecap="round"/>
<path d="M980.502 559.5C960.989 469 1046.55 418.5 1127.1 398.5" stroke="black" stroke-width="5" stroke-linecap="round"/>
<path d="M1025.03 568.5C1091.57 537.5 1137.61 462.5 1127.1 398.5" stroke="black" stroke-width="5" stroke-linecap="round"/>
<path d="M803.885 379C852.642 361.311 874.778 364.417 907.454 387" stroke="black" stroke-width="5" stroke-linecap="round"/>
<path d="M886.44 623.5L865.926 686.5L858.421 705.5" stroke="black" stroke-width="5" stroke-linecap="round"/>
<path d="M849.916 725C761.876 785.603 711.591 817.98 671.799 845" stroke="black" stroke-width="5" stroke-linecap="round"/>
<path d="M651.285 798V842" stroke="black" stroke-width="5" stroke-linecap="round"/>
<path d="M718.83 755.5L702.819 792.5" stroke="black" stroke-width="5" stroke-linecap="round"/>
<path d="M633.774 740.5L696.815 778.5" stroke="black" stroke-width="5" stroke-linecap="round"/>
<path d="M890.442 528.5C888.607 537.651 887.226 542.6 883.938 551" stroke="black" stroke-width="5" stroke-linecap="round"/>
<path d="M970.495 601.5C961.267 612.824 956.859 618.75 950.482 628.5" stroke="black" stroke-width="5" stroke-linecap="round"/>
<path d="M891.943 594.5C900.654 615.666 906.414 626.542 917.96 644.5C925.806 647.478 931.766 648.967 943.477 651.5" stroke="black" stroke-width="5" stroke-linecap="round"/>
<path d="M685.307 522.5L719.33 531L752.351 542.5" stroke="black" stroke-width="5" stroke-linecap="round"/>
<path d="M759.356 549.5L763.359 556.5L765.86 562" stroke="black" stroke-width="5" stroke-linecap="round"/>
<path d="M702.819 792.5L696.815 778.5" stroke="black" stroke-width="5" stroke-linecap="round"/>
<path d="M648.283 707.5L712.325 752.5" stroke="black" stroke-width="5" stroke-linecap="round"/>
<path d="M615.762 730H635.775" stroke="black" stroke-width="5" stroke-linecap="round"/>
<path d="M622.766 748.5C612.204 761.878 613.534 768.634 625.768 783.5" stroke="black" stroke-width="5" stroke-linecap="round"/>
<path d="M899.949 784L832.905 901.5" stroke="black" stroke-width="5" stroke-linecap="round"/>
<path d="M610.758 697C616.262 709 606.756 715.5 606.756 725" stroke="black" stroke-width="5" stroke-linecap="round"/>
<path d="M667.796 667.5L668.796 696" stroke="black" stroke-width="5" stroke-linecap="round"/>
<path d="M806.387 916.5C733.047 927.611 692.882 934.775 624.768 951" stroke="black" stroke-width="5" stroke-linecap="round"/>
<path d="M609.257 947.5H603.253" stroke="black" stroke-width="5" stroke-linecap="round"/>
<path d="M603.253 947.5C596.843 930.224 592.995 921.172 585.742 906" stroke="black" stroke-width="5" stroke-linecap="round"/>
<path d="M615.762 795C608.18 847.761 601.238 871.226 585.742 906" stroke="black" stroke-width="5" stroke-linecap="round"/>
<path d="M638.777 572C616.359 606.332 603.525 623.955 580.238 653" stroke="black" stroke-width="5" stroke-linecap="round"/>
<path d="M580.238 653C583.596 664.05 591.396 671.813 612.259 687.5C613.275 688.316 614.357 687.673 616.762 685.5" stroke="black" stroke-width="5" stroke-linecap="round"/>
<path d="M668.797 696L661.792 700.5" stroke="black" stroke-width="5" stroke-linecap="round"/>
<path d="M650.785 694.5C638.229 687.89 631.398 683.618 619.764 674.5C618.972 673.729 618.855 672.97 619.764 670.5" stroke="black" stroke-width="5" stroke-linecap="round"/>
<path d="M648.283 533C645.025 510.257 640.946 496.016 640.278 487.5C641.82 481.79 646.058 477.483 670.798 449.5C694.722 415.739 705.584 392.148 726.835 353.5" stroke="black" stroke-width="5" stroke-linecap="round"/>
<path d="M961.989 800.5C980.779 800.5 996.012 785.278 996.012 766.5C996.012 747.722 980.779 732.5 961.989 732.5C943.199 732.5 927.967 747.722 927.967 766.5C927.967 785.278 943.199 800.5 961.989 800.5Z" stroke="black" stroke-width="5"/>
<path d="M638.777 543.5C643.7 543.378 646.479 543.3 647.783 545L646.282 551.5C645.129 549.954 643.591 549.704 639.778 550L638.777 543.5Z" fill="black" stroke="black"/>
<path fill-rule="evenodd" clip-rule="evenodd" d="M692.312 578C695.547 580.011 698.316 578.5 698.816 578C699.317 577.5 700.493 574.833 700.317 564.5C699.629 562.51 698.617 561.556 694.313 560.5C676.969 542.749 648.283 541.5 647.783 542C647.282 542.5 644.781 551 644.781 551C643.259 550.397 643.462 611.978 645.281 620.5C647.099 629.022 648.283 632.5 650.284 637.5C652.286 642.5 672.299 662 678.303 662.5C684.307 663 683.884 662.811 685.307 662.5C686.731 662.189 691.45 656.555 691.311 654C691.173 651.445 693.9 607.903 692.312 578ZM683.806 573C673.501 565.486 668.28 562.536 659.29 558C655.024 571.002 654.38 584.339 654.787 613.5C656.056 626.832 657.653 631.912 661.792 637.5C668.405 646.497 675.29 655.569 680.304 655C685.318 654.431 684.772 606.299 683.806 573Z" fill="black" stroke="black"/>
<path fill-rule="evenodd" clip-rule="evenodd" d="M639.277 543C639.277 543 639.277 536 638.777 535.5C638.277 535 625.268 527 623.767 526.5C622.266 526 614.792 523.729 611.259 525C608.471 527.141 609.68 532.843 609.758 533.5C609.805 533.896 609.471 536.36 609.393 537.379C609.514 536.686 609.636 536.369 609.758 536.5C609.402 538.095 609.342 538.052 609.393 537.379C608.075 544.942 607.756 598 608.757 601C609.758 604 611.043 604.212 613.76 605.5L637.776 570.5L640.778 550L639.277 543ZM635.275 546.5C625.266 542.473 618.221 539.277 617.763 541.5C616.491 571.105 615.465 592.892 615.762 596.5C615.762 596.5 623.267 588.5 625.268 585C627.269 581.5 632.773 562 633.774 555.5C634.774 549 635.275 546.5 635.275 546.5Z" fill="black"/>
<path d="M609.393 537.379C609.471 536.36 609.805 533.896 609.758 533.5C609.68 532.843 608.471 527.141 611.259 525C614.792 523.729 622.266 526 623.767 526.5C625.268 527 638.277 535 638.777 535.5C639.277 536 639.277 543 639.277 543L640.778 550L637.776 570.5L613.76 605.5C611.043 604.212 609.758 604 608.757 601C607.756 598 608.075 544.942 609.393 537.379ZM609.393 537.379C609.514 536.686 609.636 536.369 609.758 536.5C609.402 538.095 609.342 538.052 609.393 537.379ZM617.763 541.5C618.221 539.277 625.266 542.473 635.275 546.5C635.275 546.5 634.774 549 633.774 555.5C632.773 562 627.269 581.5 625.268 585C623.267 588.5 615.762 596.5 615.762 596.5C615.465 592.892 616.491 571.105 617.763 541.5Z" stroke="black"/>
<path d="M712.782 560.514C708.645 560.262 705.086 563.41 704.834 567.544C704.582 571.678 707.732 575.234 711.869 575.486L712.782 560.514ZM711.869 575.486L1007.56 593.486L1008.48 578.514L712.782 560.514L711.869 575.486Z" fill="black"/>
<path d="M990.008 591.5L1007.52 602H1008.52L1033.54 586.5V585.5C1033.54 585.5 1015.02 578 1011.52 577.5C1008.02 577 984.004 577.5 984.004 577.5L990.008 591.5Z" fill="black" stroke="black"/>
<path d="M961.662 739C959.393 739.011 957.225 739.204 955.318 739.542C949.7 740.533 948.681 742.609 948.681 746.438V751.494H961.955V753.179H948.681H943.698C939.841 753.179 936.463 755.496 935.406 759.905C934.187 764.958 934.133 768.111 935.406 773.387C936.35 777.315 938.603 780.113 942.461 780.113H947.026V774.052C947.026 769.674 950.816 765.811 955.318 765.811H968.578C972.268 765.811 975.215 762.774 975.215 759.07V746.438C975.215 742.842 972.18 740.142 968.578 739.542C966.297 739.162 963.931 738.99 961.662 739ZM954.483 743.067C955.854 743.067 956.974 744.204 956.974 745.603C956.974 746.996 955.854 748.123 954.483 748.123C953.107 748.123 951.992 746.996 951.992 745.603C951.992 744.204 953.107 743.067 954.483 743.067Z" fill="url(#paint0_linear_2_127)"/>
<path d="M976.87 753.179V759.07C976.87 763.637 972.996 767.481 968.578 767.481H955.318C951.686 767.481 948.681 770.587 948.681 774.222V786.855C948.681 790.45 951.809 792.565 955.318 793.596C959.52 794.831 963.549 795.054 968.578 793.596C971.92 792.629 975.215 790.683 975.215 786.855V781.799H961.955V780.113H975.215H981.852C985.711 780.113 987.148 777.424 988.49 773.387C989.876 769.232 989.817 765.236 988.49 759.905C987.536 756.067 985.715 753.179 981.852 753.179H976.87ZM969.413 785.169C970.789 785.169 971.904 786.296 971.904 787.69C971.904 789.088 970.789 790.225 969.413 790.225C968.041 790.225 966.922 789.088 966.922 787.69C966.922 786.296 968.041 785.169 969.413 785.169Z" fill="url(#paint1_linear_2_127)"/>
<path d="M602.723 1170C599.923 1178.93 597.089 1187.2 594.223 1194.8C591.356 1202.4 588.489 1209.8 585.623 1217H575.923C572.389 1206.8 569.256 1196.03 566.523 1184.7C563.856 1173.37 561.356 1161.03 559.023 1147.7H569.223C570.156 1152.9 571.123 1158.1 572.123 1163.3C573.123 1168.5 574.156 1173.57 575.223 1178.5C576.289 1183.37 577.356 1188.03 578.423 1192.5C579.489 1196.97 580.589 1201.1 581.723 1204.9C584.389 1197.9 587.223 1190.23 590.223 1181.9C593.223 1173.5 596.023 1164.83 598.623 1155.9H607.023C609.623 1164.83 612.456 1173.5 615.523 1181.9C618.589 1190.23 621.456 1197.9 624.123 1204.9C625.189 1201.17 626.256 1197.07 627.323 1192.6C628.389 1188.13 629.423 1183.47 630.423 1178.6C631.489 1173.67 632.523 1168.6 633.523 1163.4C634.523 1158.13 635.489 1152.9 636.423 1147.7H646.323C643.923 1161.03 641.356 1173.37 638.623 1184.7C635.956 1196.03 632.889 1206.8 629.423 1217H619.723C616.789 1209.8 613.923 1202.4 611.123 1194.8C608.323 1187.2 605.523 1178.93 602.723 1170Z" fill="black"/>
<path d="M707.748 1191C707.748 1195.13 707.148 1198.87 705.948 1202.2C704.748 1205.53 703.048 1208.4 700.848 1210.8C698.714 1213.2 696.148 1215.07 693.148 1216.4C690.148 1217.67 686.881 1218.3 683.348 1218.3C679.814 1218.3 676.548 1217.67 673.548 1216.4C670.548 1215.07 667.948 1213.2 665.748 1210.8C663.614 1208.4 661.948 1205.53 660.748 1202.2C659.548 1198.87 658.948 1195.13 658.948 1191C658.948 1186.93 659.548 1183.23 660.748 1179.9C661.948 1176.5 663.614 1173.6 665.748 1171.2C667.948 1168.8 670.548 1166.97 673.548 1165.7C676.548 1164.37 679.814 1163.7 683.348 1163.7C686.881 1163.7 690.148 1164.37 693.148 1165.7C696.148 1166.97 698.714 1168.8 700.848 1171.2C703.048 1173.6 704.748 1176.5 705.948 1179.9C707.148 1183.23 707.748 1186.93 707.748 1191ZM698.048 1191C698.048 1185.13 696.714 1180.5 694.048 1177.1C691.448 1173.63 687.881 1171.9 683.348 1171.9C678.814 1171.9 675.214 1173.63 672.548 1177.1C669.948 1180.5 668.648 1185.13 668.648 1191C668.648 1196.87 669.948 1201.53 672.548 1205C675.214 1208.4 678.814 1210.1 683.348 1210.1C687.881 1210.1 691.448 1208.4 694.048 1205C696.714 1201.53 698.048 1196.87 698.048 1191Z" fill="black"/>
<path d="M719.332 1235.7C718.532 1235.7 717.499 1235.6 716.232 1235.4C714.965 1235.2 713.899 1234.93 713.032 1234.6L714.232 1227C714.899 1227.2 715.665 1227.37 716.532 1227.5C717.399 1227.63 718.199 1227.7 718.932 1227.7C722.132 1227.7 724.399 1226.7 725.732 1224.7C727.132 1222.77 727.832 1219.9 727.832 1216.1V1165H737.132V1216C737.132 1222.67 735.599 1227.6 732.532 1230.8C729.532 1234.07 725.132 1235.7 719.332 1235.7ZM732.432 1155.6C730.765 1155.6 729.332 1155.07 728.132 1154C726.999 1152.87 726.432 1151.37 726.432 1149.5C726.432 1147.63 726.999 1146.17 728.132 1145.1C729.332 1143.97 730.765 1143.4 732.432 1143.4C734.099 1143.4 735.499 1143.97 736.632 1145.1C737.832 1146.17 738.432 1147.63 738.432 1149.5C738.432 1151.37 737.832 1152.87 736.632 1154C735.499 1155.07 734.099 1155.6 732.432 1155.6Z" fill="black"/>
<path d="M782.725 1218.2C778.525 1218.2 774.825 1217.53 771.625 1216.2C768.492 1214.87 765.825 1213 763.625 1210.6C761.492 1208.2 759.892 1205.37 758.825 1202.1C757.758 1198.77 757.225 1195.1 757.225 1191.1C757.225 1187.1 757.792 1183.43 758.925 1180.1C760.125 1176.77 761.792 1173.9 763.925 1171.5C766.058 1169.03 768.658 1167.13 771.725 1165.8C774.858 1164.4 778.325 1163.7 782.125 1163.7C784.458 1163.7 786.792 1163.9 789.125 1164.3C791.458 1164.7 793.692 1165.33 795.825 1166.2L793.725 1174.1C792.325 1173.43 790.692 1172.9 788.825 1172.5C787.025 1172.1 785.092 1171.9 783.025 1171.9C777.825 1171.9 773.825 1173.53 771.025 1176.8C768.292 1180.07 766.925 1184.83 766.925 1191.1C766.925 1193.9 767.225 1196.47 767.825 1198.8C768.492 1201.13 769.492 1203.13 770.825 1204.8C772.225 1206.47 773.992 1207.77 776.125 1208.7C778.258 1209.57 780.858 1210 783.925 1210C786.392 1210 788.625 1209.77 790.625 1209.3C792.625 1208.83 794.192 1208.33 795.325 1207.8L796.625 1215.6C796.092 1215.93 795.325 1216.27 794.325 1216.6C793.325 1216.87 792.192 1217.1 790.925 1217.3C789.658 1217.57 788.292 1217.77 786.825 1217.9C785.425 1218.1 784.058 1218.2 782.725 1218.2Z" fill="black"/>
<path d="M822.909 1217H813.609V1165H822.909V1217ZM818.209 1155.6C816.543 1155.6 815.109 1155.07 813.909 1154C812.776 1152.87 812.209 1151.37 812.209 1149.5C812.209 1147.63 812.776 1146.17 813.909 1145.1C815.109 1143.97 816.543 1143.4 818.209 1143.4C819.876 1143.4 821.276 1143.97 822.409 1145.1C823.609 1146.17 824.209 1147.63 824.209 1149.5C824.209 1151.37 823.609 1152.87 822.409 1154C821.276 1155.07 819.876 1155.6 818.209 1155.6Z" fill="black"/>
<path d="M843.002 1191.1C843.002 1186.5 843.669 1182.5 845.002 1179.1C846.336 1175.63 848.102 1172.77 850.302 1170.5C852.502 1168.23 855.036 1166.53 857.902 1165.4C860.769 1164.27 863.702 1163.7 866.702 1163.7C873.702 1163.7 879.069 1165.9 882.802 1170.3C886.536 1174.63 888.402 1181.27 888.402 1190.2C888.402 1190.6 888.402 1191.13 888.402 1191.8C888.402 1192.4 888.369 1192.97 888.302 1193.5H852.702C853.102 1198.9 854.669 1203 857.402 1205.8C860.136 1208.6 864.402 1210 870.202 1210C873.469 1210 876.202 1209.73 878.402 1209.2C880.669 1208.6 882.369 1208.03 883.502 1207.5L884.802 1215.3C883.669 1215.9 881.669 1216.53 878.802 1217.2C876.002 1217.87 872.802 1218.2 869.202 1218.2C864.669 1218.2 860.736 1217.53 857.402 1216.2C854.136 1214.8 851.436 1212.9 849.302 1210.5C847.169 1208.1 845.569 1205.27 844.502 1202C843.502 1198.67 843.002 1195.03 843.002 1191.1ZM878.702 1186C878.769 1181.8 877.702 1178.37 875.502 1175.7C873.369 1172.97 870.402 1171.6 866.602 1171.6C864.469 1171.6 862.569 1172.03 860.902 1172.9C859.302 1173.7 857.936 1174.77 856.802 1176.1C855.669 1177.43 854.769 1178.97 854.102 1180.7C853.502 1182.43 853.102 1184.2 852.902 1186H878.702Z" fill="black"/>
<path d="M931.362 1218.2C927.162 1218.2 923.462 1217.53 920.262 1216.2C917.128 1214.87 914.462 1213 912.262 1210.6C910.128 1208.2 908.528 1205.37 907.462 1202.1C906.395 1198.77 905.862 1195.1 905.862 1191.1C905.862 1187.1 906.428 1183.43 907.562 1180.1C908.762 1176.77 910.428 1173.9 912.562 1171.5C914.695 1169.03 917.295 1167.13 920.362 1165.8C923.495 1164.4 926.962 1163.7 930.762 1163.7C933.095 1163.7 935.428 1163.9 937.762 1164.3C940.095 1164.7 942.328 1165.33 944.462 1166.2L942.362 1174.1C940.962 1173.43 939.328 1172.9 937.462 1172.5C935.662 1172.1 933.728 1171.9 931.662 1171.9C926.462 1171.9 922.462 1173.53 919.662 1176.8C916.928 1180.07 915.562 1184.83 915.562 1191.1C915.562 1193.9 915.862 1196.47 916.462 1198.8C917.128 1201.13 918.128 1203.13 919.462 1204.8C920.862 1206.47 922.628 1207.77 924.762 1208.7C926.895 1209.57 929.495 1210 932.562 1210C935.028 1210 937.262 1209.77 939.262 1209.3C941.262 1208.83 942.828 1208.33 943.962 1207.8L945.262 1215.6C944.728 1215.93 943.962 1216.27 942.962 1216.6C941.962 1216.87 940.828 1217.1 939.562 1217.3C938.295 1217.57 936.928 1217.77 935.462 1217.9C934.062 1218.1 932.695 1218.2 931.362 1218.2Z" fill="black"/>
<path d="M962.246 1217V1141L971.546 1139.4V1166C973.279 1165.33 975.113 1164.83 977.046 1164.5C979.046 1164.1 981.013 1163.9 982.946 1163.9C987.079 1163.9 990.513 1164.5 993.246 1165.7C995.979 1166.83 998.146 1168.47 999.746 1170.6C1001.41 1172.67 1002.58 1175.17 1003.25 1178.1C1003.91 1181.03 1004.25 1184.27 1004.25 1187.8V1217H994.946V1189.8C994.946 1186.6 994.713 1183.87 994.246 1181.6C993.846 1179.33 993.146 1177.5 992.146 1176.1C991.146 1174.7 989.813 1173.7 988.146 1173.1C986.479 1172.43 984.413 1172.1 981.946 1172.1C980.946 1172.1 979.913 1172.17 978.846 1172.3C977.779 1172.43 976.746 1172.6 975.746 1172.8C974.813 1172.93 973.946 1173.1 973.146 1173.3C972.413 1173.5 971.879 1173.67 971.546 1173.8V1217H962.246Z" fill="black"/>
<path d="M1101.12 1155.4C1099.59 1157.13 1097.79 1159.23 1095.72 1161.7C1093.72 1164.1 1091.59 1166.8 1089.32 1169.8C1087.05 1172.73 1084.72 1175.87 1082.32 1179.2C1079.92 1182.47 1077.55 1185.8 1075.22 1189.2C1072.95 1192.53 1070.79 1195.87 1068.72 1199.2C1066.65 1202.53 1064.79 1205.7 1063.12 1208.7H1102.12V1217H1051.82V1210.5C1053.22 1207.83 1054.85 1204.9 1056.72 1201.7C1058.65 1198.5 1060.69 1195.23 1062.82 1191.9C1065.02 1188.57 1067.29 1185.2 1069.62 1181.8C1071.95 1178.4 1074.25 1175.13 1076.52 1172C1078.85 1168.87 1081.09 1165.93 1083.22 1163.2C1085.42 1160.47 1087.42 1158.07 1089.22 1156H1053.62V1147.7H1101.12V1155.4Z" fill="black"/>
<path d="M1130.14 1217H1120.84V1165H1130.14V1217ZM1125.44 1155.6C1123.78 1155.6 1122.34 1155.07 1121.14 1154C1120.01 1152.87 1119.44 1151.37 1119.44 1149.5C1119.44 1147.63 1120.01 1146.17 1121.14 1145.1C1122.34 1143.97 1123.78 1143.4 1125.44 1143.4C1127.11 1143.4 1128.51 1143.97 1129.64 1145.1C1130.84 1146.17 1131.44 1147.63 1131.44 1149.5C1131.44 1151.37 1130.84 1152.87 1129.64 1154C1128.51 1155.07 1127.11 1155.6 1125.44 1155.6Z" fill="black"/>
<path d="M1170.74 1210.3C1172.94 1210.3 1174.87 1210.27 1176.54 1210.2C1178.27 1210.07 1179.7 1209.87 1180.84 1209.6V1194.1C1180.17 1193.77 1179.07 1193.5 1177.54 1193.3C1176.07 1193.03 1174.27 1192.9 1172.14 1192.9C1170.74 1192.9 1169.24 1193 1167.64 1193.2C1166.1 1193.4 1164.67 1193.83 1163.34 1194.5C1162.07 1195.1 1161 1195.97 1160.14 1197.1C1159.27 1198.17 1158.84 1199.6 1158.84 1201.4C1158.84 1204.73 1159.9 1207.07 1162.04 1208.4C1164.17 1209.67 1167.07 1210.3 1170.74 1210.3ZM1169.94 1163.7C1173.67 1163.7 1176.8 1164.2 1179.34 1165.2C1181.94 1166.13 1184 1167.5 1185.54 1169.3C1187.14 1171.03 1188.27 1173.13 1188.94 1175.6C1189.6 1178 1189.94 1180.67 1189.94 1183.6V1216.1C1189.14 1216.23 1188 1216.43 1186.54 1216.7C1185.14 1216.9 1183.54 1217.1 1181.74 1217.3C1179.94 1217.5 1177.97 1217.67 1175.84 1217.8C1173.77 1218 1171.7 1218.1 1169.64 1218.1C1166.7 1218.1 1164 1217.8 1161.54 1217.2C1159.07 1216.6 1156.94 1215.67 1155.14 1214.4C1153.34 1213.07 1151.94 1211.33 1150.94 1209.2C1149.94 1207.07 1149.44 1204.5 1149.44 1201.5C1149.44 1198.63 1150 1196.17 1151.14 1194.1C1152.34 1192.03 1153.94 1190.37 1155.94 1189.1C1157.94 1187.83 1160.27 1186.9 1162.94 1186.3C1165.6 1185.7 1168.4 1185.4 1171.34 1185.4C1172.27 1185.4 1173.24 1185.47 1174.24 1185.6C1175.24 1185.67 1176.17 1185.8 1177.04 1186C1177.97 1186.13 1178.77 1186.27 1179.44 1186.4C1180.1 1186.53 1180.57 1186.63 1180.84 1186.7V1184.1C1180.84 1182.57 1180.67 1181.07 1180.34 1179.6C1180 1178.07 1179.4 1176.73 1178.54 1175.6C1177.67 1174.4 1176.47 1173.47 1174.94 1172.8C1173.47 1172.07 1171.54 1171.7 1169.14 1171.7C1166.07 1171.7 1163.37 1171.93 1161.04 1172.4C1158.77 1172.8 1157.07 1173.23 1155.94 1173.7L1154.84 1166C1156.04 1165.47 1158.04 1164.97 1160.84 1164.5C1163.64 1163.97 1166.67 1163.7 1169.94 1163.7Z" fill="black"/>
<path d="M1231.58 1163.9C1232.38 1163.9 1233.28 1163.97 1234.28 1164.1C1235.35 1164.17 1236.38 1164.3 1237.38 1164.5C1238.38 1164.63 1239.28 1164.8 1240.08 1165C1240.95 1165.13 1241.58 1165.27 1241.98 1165.4L1240.38 1173.5C1239.65 1173.23 1238.42 1172.93 1236.68 1172.6C1235.02 1172.2 1232.85 1172 1230.18 1172C1228.45 1172 1226.72 1172.2 1224.98 1172.6C1223.32 1172.93 1222.22 1173.17 1221.68 1173.3V1217H1212.38V1167.2C1214.58 1166.4 1217.32 1165.67 1220.58 1165C1223.85 1164.27 1227.52 1163.9 1231.58 1163.9Z" fill="black"/>
<path d="M1257.96 1166.5C1260.09 1165.97 1262.92 1165.4 1266.46 1164.8C1269.99 1164.2 1274.06 1163.9 1278.66 1163.9C1282.79 1163.9 1286.22 1164.5 1288.96 1165.7C1291.69 1166.83 1293.86 1168.47 1295.46 1170.6C1297.12 1172.67 1298.29 1175.17 1298.96 1178.1C1299.62 1181.03 1299.96 1184.27 1299.96 1187.8V1217H1290.66V1189.8C1290.66 1186.6 1290.42 1183.87 1289.96 1181.6C1289.56 1179.33 1288.86 1177.5 1287.86 1176.1C1286.86 1174.7 1285.52 1173.7 1283.86 1173.1C1282.19 1172.43 1280.12 1172.1 1277.66 1172.1C1276.66 1172.1 1275.62 1172.13 1274.56 1172.2C1273.49 1172.27 1272.46 1172.37 1271.46 1172.5C1270.52 1172.57 1269.66 1172.67 1268.86 1172.8C1268.12 1172.93 1267.59 1173.03 1267.26 1173.1V1217H1257.96V1166.5Z" fill="black"/>
<path d="M1331.68 1217H1322.38V1165H1331.68V1217ZM1326.98 1155.6C1325.31 1155.6 1323.88 1155.07 1322.68 1154C1321.55 1152.87 1320.98 1151.37 1320.98 1149.5C1320.98 1147.63 1321.55 1146.17 1322.68 1145.1C1323.88 1143.97 1325.31 1143.4 1326.98 1143.4C1328.65 1143.4 1330.05 1143.97 1331.18 1145.1C1332.38 1146.17 1332.98 1147.63 1332.98 1149.5C1332.98 1151.37 1332.38 1152.87 1331.18 1154C1330.05 1155.07 1328.65 1155.6 1326.98 1155.6Z" fill="black"/>
<path d="M1373.47 1188.4C1375.47 1189.93 1377.57 1191.83 1379.77 1194.1C1382.04 1196.37 1384.24 1198.83 1386.37 1201.5C1388.57 1204.1 1390.64 1206.77 1392.57 1209.5C1394.51 1212.17 1396.14 1214.67 1397.47 1217H1386.57C1385.17 1214.67 1383.54 1212.3 1381.67 1209.9C1379.87 1207.43 1377.97 1205.1 1375.97 1202.9C1373.97 1200.63 1371.94 1198.57 1369.87 1196.7C1367.81 1194.83 1365.84 1193.27 1363.97 1192V1217H1354.67V1141L1363.97 1139.4V1186.8C1365.57 1185.2 1367.34 1183.43 1369.27 1181.5C1371.21 1179.57 1373.11 1177.6 1374.97 1175.6C1376.84 1173.6 1378.61 1171.7 1380.27 1169.9C1381.94 1168.03 1383.37 1166.4 1384.57 1165H1395.47C1393.94 1166.67 1392.27 1168.5 1390.47 1170.5C1388.67 1172.5 1386.81 1174.53 1384.87 1176.6C1382.94 1178.6 1380.97 1180.63 1378.97 1182.7C1377.04 1184.7 1375.21 1186.6 1373.47 1188.4Z" fill="black"/>
<path d="M759.848 1247C764.714 1247 768.448 1247.93 771.048 1249.8C773.681 1251.63 774.998 1254.38 774.998 1258.05C774.998 1260.05 774.631 1261.77 773.898 1263.2C773.198 1264.6 772.164 1265.75 770.798 1266.65C769.464 1267.52 767.831 1268.15 765.898 1268.55C763.964 1268.95 761.781 1269.15 759.348 1269.15H755.498V1282H750.648V1247.85C752.014 1247.52 753.531 1247.3 755.198 1247.2C756.898 1247.07 758.448 1247 759.848 1247ZM760.248 1251.25C758.181 1251.25 756.598 1251.3 755.498 1251.4V1265H759.148C760.814 1265 762.314 1264.9 763.648 1264.7C764.981 1264.47 766.098 1264.1 766.998 1263.6C767.931 1263.07 768.648 1262.35 769.148 1261.45C769.648 1260.55 769.898 1259.4 769.898 1258C769.898 1256.67 769.631 1255.57 769.098 1254.7C768.598 1253.83 767.898 1253.15 766.998 1252.65C766.131 1252.12 765.114 1251.75 763.948 1251.55C762.781 1251.35 761.548 1251.25 760.248 1251.25Z" fill="black"/>
<path d="M781.706 1286.85C782.073 1287.02 782.539 1287.17 783.106 1287.3C783.706 1287.47 784.289 1287.55 784.856 1287.55C786.689 1287.55 788.123 1287.13 789.156 1286.3C790.189 1285.5 791.123 1284.18 791.956 1282.35C789.856 1278.35 787.889 1274.12 786.056 1269.65C784.256 1265.15 782.756 1260.6 781.556 1256H786.556C786.923 1257.5 787.356 1259.12 787.856 1260.85C788.389 1262.58 788.973 1264.37 789.606 1266.2C790.239 1268.03 790.923 1269.87 791.656 1271.7C792.389 1273.53 793.156 1275.3 793.956 1277C795.223 1273.5 796.323 1270.03 797.256 1266.6C798.189 1263.17 799.073 1259.63 799.906 1256H804.706C803.506 1260.9 802.173 1265.62 800.706 1270.15C799.239 1274.65 797.656 1278.87 795.956 1282.8C795.289 1284.3 794.589 1285.58 793.856 1286.65C793.156 1287.75 792.373 1288.65 791.506 1289.35C790.639 1290.05 789.656 1290.57 788.556 1290.9C787.489 1291.23 786.273 1291.4 784.906 1291.4C784.539 1291.4 784.156 1291.37 783.756 1291.3C783.356 1291.27 782.956 1291.2 782.556 1291.1C782.189 1291.03 781.839 1290.95 781.506 1290.85C781.206 1290.75 780.989 1290.67 780.856 1290.6L781.706 1286.85Z" fill="black"/>
<path d="M817.459 1256H827.309V1259.9H817.459V1271.9C817.459 1273.2 817.559 1274.28 817.759 1275.15C817.959 1275.98 818.259 1276.65 818.659 1277.15C819.059 1277.62 819.559 1277.95 820.159 1278.15C820.759 1278.35 821.459 1278.45 822.259 1278.45C823.659 1278.45 824.776 1278.3 825.609 1278C826.476 1277.67 827.076 1277.43 827.409 1277.3L828.309 1281.15C827.843 1281.38 827.026 1281.67 825.859 1282C824.693 1282.37 823.359 1282.55 821.859 1282.55C820.093 1282.55 818.626 1282.33 817.459 1281.9C816.326 1281.43 815.409 1280.75 814.709 1279.85C814.009 1278.95 813.509 1277.85 813.209 1276.55C812.943 1275.22 812.809 1273.68 812.809 1271.95V1248.75L817.459 1247.95V1256Z" fill="black"/>
<path d="M836.727 1282V1244L841.377 1243.2V1256.5C842.243 1256.17 843.16 1255.92 844.127 1255.75C845.127 1255.55 846.11 1255.45 847.077 1255.45C849.143 1255.45 850.86 1255.75 852.227 1256.35C853.593 1256.92 854.677 1257.73 855.477 1258.8C856.31 1259.83 856.893 1261.08 857.227 1262.55C857.56 1264.02 857.727 1265.63 857.727 1267.4V1282H853.077V1268.4C853.077 1266.8 852.96 1265.43 852.727 1264.3C852.527 1263.17 852.177 1262.25 851.677 1261.55C851.177 1260.85 850.51 1260.35 849.677 1260.05C848.843 1259.72 847.81 1259.55 846.577 1259.55C846.077 1259.55 845.56 1259.58 845.027 1259.65C844.493 1259.72 843.977 1259.8 843.477 1259.9C843.01 1259.97 842.577 1260.05 842.177 1260.15C841.81 1260.25 841.543 1260.33 841.377 1260.4V1282H836.727Z" fill="black"/>
<path d="M891.741 1269C891.741 1271.07 891.441 1272.93 890.841 1274.6C890.241 1276.27 889.391 1277.7 888.291 1278.9C887.224 1280.1 885.941 1281.03 884.441 1281.7C882.941 1282.33 881.308 1282.65 879.541 1282.65C877.774 1282.65 876.141 1282.33 874.641 1281.7C873.141 1281.03 871.841 1280.1 870.741 1278.9C869.674 1277.7 868.841 1276.27 868.241 1274.6C867.641 1272.93 867.341 1271.07 867.341 1269C867.341 1266.97 867.641 1265.12 868.241 1263.45C868.841 1261.75 869.674 1260.3 870.741 1259.1C871.841 1257.9 873.141 1256.98 874.641 1256.35C876.141 1255.68 877.774 1255.35 879.541 1255.35C881.308 1255.35 882.941 1255.68 884.441 1256.35C885.941 1256.98 887.224 1257.9 888.291 1259.1C889.391 1260.3 890.241 1261.75 890.841 1263.45C891.441 1265.12 891.741 1266.97 891.741 1269ZM886.891 1269C886.891 1266.07 886.224 1263.75 884.891 1262.05C883.591 1260.32 881.808 1259.45 879.541 1259.45C877.274 1259.45 875.474 1260.32 874.141 1262.05C872.841 1263.75 872.191 1266.07 872.191 1269C872.191 1271.93 872.841 1274.27 874.141 1276C875.474 1277.7 877.274 1278.55 879.541 1278.55C881.808 1278.55 883.591 1277.7 884.891 1276C886.224 1274.27 886.891 1271.93 886.891 1269Z" fill="black"/>
<path d="M901.783 1256.75C902.85 1256.48 904.267 1256.2 906.033 1255.9C907.8 1255.6 909.833 1255.45 912.133 1255.45C914.2 1255.45 915.917 1255.75 917.283 1256.35C918.65 1256.92 919.733 1257.73 920.533 1258.8C921.367 1259.83 921.95 1261.08 922.283 1262.55C922.617 1264.02 922.783 1265.63 922.783 1267.4V1282H918.133V1268.4C918.133 1266.8 918.017 1265.43 917.783 1264.3C917.583 1263.17 917.233 1262.25 916.733 1261.55C916.233 1260.85 915.567 1260.35 914.733 1260.05C913.9 1259.72 912.867 1259.55 911.633 1259.55C911.133 1259.55 910.617 1259.57 910.083 1259.6C909.55 1259.63 909.033 1259.68 908.533 1259.75C908.067 1259.78 907.633 1259.83 907.233 1259.9C906.867 1259.97 906.6 1260.02 906.433 1260.05V1282H901.783V1256.75Z" fill="black"/>
<path d="M977.816 1264.65C977.816 1267.65 977.35 1270.27 976.416 1272.5C975.483 1274.7 974.166 1276.53 972.466 1278C970.766 1279.43 968.733 1280.52 966.366 1281.25C964 1281.95 961.4 1282.3 958.566 1282.3C957.166 1282.3 955.616 1282.23 953.916 1282.1C952.25 1282 950.733 1281.78 949.366 1281.45V1247.85C950.733 1247.52 952.25 1247.3 953.916 1247.2C955.616 1247.07 957.166 1247 958.566 1247C961.4 1247 964 1247.37 966.366 1248.1C968.733 1248.8 970.766 1249.88 972.466 1251.35C974.166 1252.78 975.483 1254.62 976.416 1256.85C977.35 1259.05 977.816 1261.65 977.816 1264.65ZM958.966 1278.05C963.566 1278.05 967 1276.88 969.266 1274.55C971.533 1272.18 972.666 1268.88 972.666 1264.65C972.666 1260.42 971.533 1257.13 969.266 1254.8C967 1252.43 963.566 1251.25 958.966 1251.25C957.6 1251.25 956.533 1251.27 955.766 1251.3C955.033 1251.33 954.516 1251.37 954.216 1251.4V1277.9C954.516 1277.93 955.033 1277.97 955.766 1278C956.533 1278.03 957.6 1278.05 958.966 1278.05Z" fill="black"/>
<path d="M986.761 1269.05C986.761 1266.75 987.094 1264.75 987.761 1263.05C988.428 1261.32 989.311 1259.88 990.411 1258.75C991.511 1257.62 992.778 1256.77 994.211 1256.2C995.644 1255.63 997.111 1255.35 998.611 1255.35C1002.11 1255.35 1004.79 1256.45 1006.66 1258.65C1008.53 1260.82 1009.46 1264.13 1009.46 1268.6C1009.46 1268.8 1009.46 1269.07 1009.46 1269.4C1009.46 1269.7 1009.44 1269.98 1009.41 1270.25H991.611C991.811 1272.95 992.594 1275 993.961 1276.4C995.328 1277.8 997.461 1278.5 1000.36 1278.5C1001.99 1278.5 1003.36 1278.37 1004.46 1278.1C1005.59 1277.8 1006.44 1277.52 1007.01 1277.25L1007.66 1281.15C1007.09 1281.45 1006.09 1281.77 1004.66 1282.1C1003.26 1282.43 1001.66 1282.6 999.861 1282.6C997.594 1282.6 995.628 1282.27 993.961 1281.6C992.328 1280.9 990.978 1279.95 989.911 1278.75C988.844 1277.55 988.044 1276.13 987.511 1274.5C987.011 1272.83 986.761 1271.02 986.761 1269.05ZM1004.61 1266.5C1004.64 1264.4 1004.11 1262.68 1003.01 1261.35C1001.94 1259.98 1000.46 1259.3 998.561 1259.3C997.494 1259.3 996.544 1259.52 995.711 1259.95C994.911 1260.35 994.228 1260.88 993.661 1261.55C993.094 1262.22 992.644 1262.98 992.311 1263.85C992.011 1264.72 991.811 1265.6 991.711 1266.5H1004.61Z" fill="black"/>
<path d="M1039.94 1256C1038.64 1260.87 1037.11 1265.53 1035.34 1270C1033.61 1274.47 1031.92 1278.47 1030.29 1282H1026.09C1024.46 1278.47 1022.76 1274.47 1020.99 1270C1019.26 1265.53 1017.74 1260.87 1016.44 1256H1021.44C1021.84 1257.63 1022.31 1259.38 1022.84 1261.25C1023.41 1263.08 1023.99 1264.92 1024.59 1266.75C1025.22 1268.55 1025.86 1270.3 1026.49 1272C1027.12 1273.7 1027.72 1275.22 1028.29 1276.55C1028.86 1275.22 1029.46 1273.7 1030.09 1272C1030.72 1270.3 1031.34 1268.55 1031.94 1266.75C1032.57 1264.92 1033.16 1263.08 1033.69 1261.25C1034.26 1259.38 1034.74 1257.63 1035.14 1256H1039.94Z" fill="black"/>
<path d="M1046.1 1269.05C1046.1 1266.75 1046.44 1264.75 1047.1 1263.05C1047.77 1261.32 1048.65 1259.88 1049.75 1258.75C1050.85 1257.62 1052.12 1256.77 1053.55 1256.2C1054.99 1255.63 1056.45 1255.35 1057.95 1255.35C1061.45 1255.35 1064.14 1256.45 1066 1258.65C1067.87 1260.82 1068.8 1264.13 1068.8 1268.6C1068.8 1268.8 1068.8 1269.07 1068.8 1269.4C1068.8 1269.7 1068.79 1269.98 1068.75 1270.25H1050.95C1051.15 1272.95 1051.94 1275 1053.3 1276.4C1054.67 1277.8 1056.8 1278.5 1059.7 1278.5C1061.34 1278.5 1062.7 1278.37 1063.8 1278.1C1064.94 1277.8 1065.79 1277.52 1066.35 1277.25L1067 1281.15C1066.44 1281.45 1065.44 1281.77 1064 1282.1C1062.6 1282.43 1061 1282.6 1059.2 1282.6C1056.94 1282.6 1054.97 1282.27 1053.3 1281.6C1051.67 1280.9 1050.32 1279.95 1049.25 1278.75C1048.19 1277.55 1047.39 1276.13 1046.85 1274.5C1046.35 1272.83 1046.1 1271.02 1046.1 1269.05ZM1063.95 1266.5C1063.99 1264.4 1063.45 1262.68 1062.35 1261.35C1061.29 1259.98 1059.8 1259.3 1057.9 1259.3C1056.84 1259.3 1055.89 1259.52 1055.05 1259.95C1054.25 1260.35 1053.57 1260.88 1053 1261.55C1052.44 1262.22 1051.99 1262.98 1051.65 1263.85C1051.35 1264.72 1051.15 1265.6 1051.05 1266.5H1063.95Z" fill="black"/>
<path d="M1086.78 1282.5C1083.92 1282.43 1081.88 1281.82 1080.68 1280.65C1079.48 1279.48 1078.88 1277.67 1078.88 1275.2V1244L1083.53 1243.2V1274.45C1083.53 1275.22 1083.6 1275.85 1083.73 1276.35C1083.87 1276.85 1084.08 1277.25 1084.38 1277.55C1084.68 1277.85 1085.08 1278.08 1085.58 1278.25C1086.08 1278.38 1086.7 1278.5 1087.43 1278.6L1086.78 1282.5Z" fill="black"/>
<path d="M1119.11 1269C1119.11 1271.07 1118.81 1272.93 1118.21 1274.6C1117.61 1276.27 1116.76 1277.7 1115.66 1278.9C1114.59 1280.1 1113.31 1281.03 1111.81 1281.7C1110.31 1282.33 1108.67 1282.65 1106.91 1282.65C1105.14 1282.65 1103.51 1282.33 1102.01 1281.7C1100.51 1281.03 1099.21 1280.1 1098.11 1278.9C1097.04 1277.7 1096.21 1276.27 1095.61 1274.6C1095.01 1272.93 1094.71 1271.07 1094.71 1269C1094.71 1266.97 1095.01 1265.12 1095.61 1263.45C1096.21 1261.75 1097.04 1260.3 1098.11 1259.1C1099.21 1257.9 1100.51 1256.98 1102.01 1256.35C1103.51 1255.68 1105.14 1255.35 1106.91 1255.35C1108.67 1255.35 1110.31 1255.68 1111.81 1256.35C1113.31 1256.98 1114.59 1257.9 1115.66 1259.1C1116.76 1260.3 1117.61 1261.75 1118.21 1263.45C1118.81 1265.12 1119.11 1266.97 1119.11 1269ZM1114.26 1269C1114.26 1266.07 1113.59 1263.75 1112.26 1262.05C1110.96 1260.32 1109.17 1259.45 1106.91 1259.45C1104.64 1259.45 1102.84 1260.32 1101.51 1262.05C1100.21 1263.75 1099.56 1266.07 1099.56 1269C1099.56 1271.93 1100.21 1274.27 1101.51 1276C1102.84 1277.7 1104.64 1278.55 1106.91 1278.55C1109.17 1278.55 1110.96 1277.7 1112.26 1276C1113.59 1274.27 1114.26 1271.93 1114.26 1269Z" fill="black"/>
<path d="M1147.2 1269.05C1147.2 1266.02 1146.45 1263.68 1144.95 1262.05C1143.45 1260.42 1141.45 1259.6 1138.95 1259.6C1137.55 1259.6 1136.45 1259.65 1135.65 1259.75C1134.88 1259.85 1134.27 1259.97 1133.8 1260.1V1276.5C1134.37 1276.97 1135.18 1277.42 1136.25 1277.85C1137.32 1278.28 1138.48 1278.5 1139.75 1278.5C1141.08 1278.5 1142.22 1278.27 1143.15 1277.8C1144.12 1277.3 1144.9 1276.63 1145.5 1275.8C1146.1 1274.93 1146.53 1273.93 1146.8 1272.8C1147.07 1271.63 1147.2 1270.38 1147.2 1269.05ZM1152.05 1269.05C1152.05 1271.02 1151.78 1272.83 1151.25 1274.5C1150.75 1276.17 1150 1277.6 1149 1278.8C1148 1280 1146.77 1280.93 1145.3 1281.6C1143.87 1282.27 1142.22 1282.6 1140.35 1282.6C1138.85 1282.6 1137.52 1282.4 1136.35 1282C1135.22 1281.6 1134.37 1281.22 1133.8 1280.85V1291.25H1129.15V1256.8C1130.25 1256.53 1131.62 1256.25 1133.25 1255.95C1134.92 1255.62 1136.83 1255.45 1139 1255.45C1141 1255.45 1142.8 1255.77 1144.4 1256.4C1146 1257.03 1147.37 1257.93 1148.5 1259.1C1149.63 1260.27 1150.5 1261.7 1151.1 1263.4C1151.73 1265.07 1152.05 1266.95 1152.05 1269.05Z" fill="black"/>
<path d="M1160.64 1269.05C1160.64 1266.75 1160.98 1264.75 1161.64 1263.05C1162.31 1261.32 1163.19 1259.88 1164.29 1258.75C1165.39 1257.62 1166.66 1256.77 1168.09 1256.2C1169.53 1255.63 1170.99 1255.35 1172.49 1255.35C1175.99 1255.35 1178.68 1256.45 1180.54 1258.65C1182.41 1260.82 1183.34 1264.13 1183.34 1268.6C1183.34 1268.8 1183.34 1269.07 1183.34 1269.4C1183.34 1269.7 1183.33 1269.98 1183.29 1270.25H1165.49C1165.69 1272.95 1166.48 1275 1167.84 1276.4C1169.21 1277.8 1171.34 1278.5 1174.24 1278.5C1175.88 1278.5 1177.24 1278.37 1178.34 1278.1C1179.48 1277.8 1180.33 1277.52 1180.89 1277.25L1181.54 1281.15C1180.98 1281.45 1179.98 1281.77 1178.54 1282.1C1177.14 1282.43 1175.54 1282.6 1173.74 1282.6C1171.48 1282.6 1169.51 1282.27 1167.84 1281.6C1166.21 1280.9 1164.86 1279.95 1163.79 1278.75C1162.73 1277.55 1161.93 1276.13 1161.39 1274.5C1160.89 1272.83 1160.64 1271.02 1160.64 1269.05ZM1178.49 1266.5C1178.53 1264.4 1177.99 1262.68 1176.89 1261.35C1175.83 1259.98 1174.34 1259.3 1172.44 1259.3C1171.38 1259.3 1170.43 1259.52 1169.59 1259.95C1168.79 1260.35 1168.11 1260.88 1167.54 1261.55C1166.98 1262.22 1166.53 1262.98 1166.19 1263.85C1165.89 1264.72 1165.69 1265.6 1165.59 1266.5H1178.49Z" fill="black"/>
<path d="M1203.12 1255.45C1203.52 1255.45 1203.97 1255.48 1204.47 1255.55C1205 1255.58 1205.52 1255.65 1206.02 1255.75C1206.52 1255.82 1206.97 1255.9 1207.37 1256C1207.8 1256.07 1208.12 1256.13 1208.32 1256.2L1207.52 1260.25C1207.15 1260.12 1206.54 1259.97 1205.67 1259.8C1204.84 1259.6 1203.75 1259.5 1202.42 1259.5C1201.55 1259.5 1200.69 1259.6 1199.82 1259.8C1198.99 1259.97 1198.44 1260.08 1198.17 1260.15V1282H1193.52V1257.1C1194.62 1256.7 1195.99 1256.33 1197.62 1256C1199.25 1255.63 1201.09 1255.45 1203.12 1255.45Z" fill="black"/>
<defs>
<linearGradient id="paint0_linear_2_127" x1="934.471" y1="739" x2="965.065" y2="765.087" gradientUnits="userSpaceOnUse">
<stop stop-color="#5A9FD4"/>
<stop offset="1" stop-color="#306998"/>
</linearGradient>
<linearGradient id="paint1_linear_2_127" x1="969.094" y1="787.264" x2="958.121" y2="771.879" gradientUnits="userSpaceOnUse">
<stop stop-color="#FFD43B"/>
<stop offset="1" stop-color="#FFE873"/>
</linearGradient>
</defs>
</svg>
